<?xml version="1.0" encoding="UTF-8"?>
<!DOCTYPE svg PUBLIC "-//W3C//DTD SVG 1.1//EN" "http://www.w3.org/Graphics/SVG/1.1/DTD/svg11.dtd">
<!-- Creator: CorelDRAW X6 -->
<svg xmlns="http://www.w3.org/2000/svg" xml:space="preserve" width="16.6667in" height="6.66666in" version="1.1" style="shape-rendering:geometricPrecision; text-rendering:geometricPrecision; image-rendering:optimizeQuality; fill-rule:evenodd; clip-rule:evenodd"
viewBox="0 0 16667 6667"
 xmlns:xlink="http://www.w3.org/1999/xlink">
 <defs>
  <style type="text/css">
   <![CDATA[
    .fil0 {fill:#FAF5FF}
    .fil1 {fill:#F73444;fill-rule:nonzero}
   ]]>
  </style>
 </defs>
 <g id="Layer_x0020_1">
  <metadata id="CorelCorpID_0Corel-Layer"/>
  <path class="fil0" d="M8895 2568c-58,0 -109,-18 -151,-59 -42,-41 -61,-92 -61,-150 0,-59 18,-111 61,-153 42,-41 93,-59 151,-59 58,0 108,18 150,59 42,42 59,94 59,153 0,58 -18,108 -59,150 -41,41 -92,59 -150,59z"/>
  <path class="fil0" d="M7276 3091l36 0c41,-86 108,-156 184,-213 107,-79 257,-97 386,-97 117,0 231,23 335,78 101,54 180,133 237,232 66,114 88,247 88,377l0 997c0,4 -3,7 -7,7l-266 0c-4,0 -7,-3 -7,-7l0 -977c0,-125 -24,-264 -121,-352 -91,-82 -208,-109 -328,-109 -148,0 -280,45 -384,153 -117,121 -148,295 -148,457l0 829c0,4 -3,7 -7,7l-266 0c-4,0 -7,-3 -7,-7l0 -1648c0,-4 3,-7 7,-7l259 0c4,0 7,3 7,7l0 273z"/>
  <path class="fil0" d="M6516 3492l0 -72c0,-102 -26,-198 -101,-272 -79,-78 -193,-99 -300,-99l-649 0c-4,0 -7,-3 -7,-7l0 -229c0,-4 3,-7 7,-7l652 0c180,0 361,39 496,165 132,123 177,289 177,465l0 1029c0,4 -3,7 -7,7l-232 0c-4,0 -7,-3 -7,-7l0 -239 -30 0c-28,47 -62,90 -98,131 -47,52 -108,89 -172,116 -87,37 -189,46 -282,46 -109,0 -216,-18 -316,-61 -91,-39 -168,-97 -225,-177 -59,-84 -82,-182 -82,-283 0,-101 21,-200 82,-282 58,-78 135,-132 225,-167 102,-40 210,-56 319,-56l549 0zm0 229l-539 0c-90,0 -182,17 -257,68 -71,48 -100,118 -100,202 0,87 32,158 103,210 79,57 175,76 271,76 142,0 274,-38 378,-138 108,-103 145,-242 145,-388l0 -31z"/>
  <path class="fil0" d="M2709 3492l0 -72c0,-102 -26,-198 -101,-272 -79,-78 -193,-99 -300,-99l-649 0c-4,0 -7,-3 -7,-7l0 -229c0,-4 3,-7 7,-7l652 0c180,0 361,39 496,165 132,123 177,289 177,465l0 1029c0,4 -3,7 -7,7l-232 0c-4,0 -7,-3 -7,-7l0 -239 -30 0c-28,47 -62,90 -98,131 -47,52 -108,89 -172,116 -87,37 -189,46 -282,46 -109,0 -216,-18 -316,-61 -91,-39 -168,-97 -225,-177 -59,-84 -82,-182 -82,-283 0,-101 21,-200 82,-282 58,-78 135,-132 225,-167 102,-40 210,-56 319,-56l549 0zm0 229l-539 0c-90,0 -182,17 -257,68 -71,48 -100,118 -100,202 0,87 32,158 103,210 79,57 175,76 271,76 142,0 274,-38 378,-138 108,-103 145,-242 145,-388l0 -31z"/>
  <path class="fil0" d="M4229 3049l-139 0 0 35 -1 1382c0,4 -3,7 -7,7l-488 0c-125,0 -226,-101 -226,-226l0 -230 -369 -1196c-1,-2 0,-4 1,-6 1,-2 3,-3 5,-3l268 0c3,0 5,2 6,5l371 1203 0 215 156 0 0 -1417c0,-4 3,-7 7,-7l618 0c3,0 5,2 6,5l371 1203 0 215 156 0 0 -1417c0,-4 3,-7 7,-7l270 0c4,0 7,3 7,7l-1 1648c0,4 -3,7 -7,7l-488 0c-125,0 -226,-101 -226,-226l0 -230 -299 -967z"/>
  <path class="fil0" d="M8754 4465l0 -1648c0,-4 3,-7 7,-7l266 0c4,0 7,3 7,7l0 1648c0,4 -3,7 -7,7l-266 0c-4,0 -7,-3 -7,-7z"/>
  <path class="fil1" d="M9650 4454l0 -159 182 0c46,0 86,-7 122,-21 36,-14 66,-34 91,-60 25,-26 44,-56 57,-91 13,-35 20,-74 20,-116 0,-44 -7,-84 -20,-119 -13,-35 -32,-65 -57,-90 -25,-25 -55,-44 -91,-57 -36,-13 -76,-19 -122,-19l-182 0 0 -159 171 0c79,0 149,12 208,35 59,23 109,55 148,96 39,41 69,87 88,138 20,52 29,105 29,161l0 26c0,53 -10,105 -29,156 -20,51 -49,98 -88,140 -39,42 -89,75 -148,100 -59,25 -129,37 -208,37l-171 0zm-147 0l0 -889 171 0 0 889 -171 0zm947 -5l0 -878 171 0 0 878 -171 0zm799 23c-75,0 -142,-13 -199,-38 -57,-25 -105,-59 -144,-102 -39,-43 -68,-91 -88,-146 -20,-54 -29,-111 -29,-169l0 -26c0,-55 10,-110 29,-162 19,-53 48,-101 85,-143 37,-43 83,-76 138,-102 55,-25 118,-38 190,-38 77,0 145,14 205,43 59,28 107,68 143,119 36,51 57,110 64,177l-172 0c-6,-38 -20,-70 -42,-97 -22,-27 -51,-48 -85,-62 -34,-14 -72,-22 -113,-22 -41,0 -78,7 -111,22 -33,14 -62,35 -85,61 -23,26 -41,58 -54,95 -12,37 -19,78 -19,123 0,49 7,93 20,131 14,39 33,71 58,98 25,27 55,47 90,61 35,14 75,21 119,21 59,0 110,-12 154,-37 44,-24 76,-56 96,-96l-30 138 0 -226 158 0 0 195c-38,57 -89,101 -154,133 -65,32 -140,48 -224,48zm-28 -342l0 -128 479 0 0 128 -479 0zm622 319l0 -878 171 0 0 878 -171 0zm563 0l0 -752 171 0 0 752 -171 0zm-254 -728l0 -150 679 0 0 150 -679 0zm653 728l300 -878 279 0 308 878 -176 0 -261 -762 61 26 -150 0 63 -26 -253 762 -171 0zm209 -233l54 -144 356 0 53 144 -463 0zm807 233l0 -878 171 0 0 878 -171 0zm147 0l0 -150 379 0 0 150 -379 0zm809 23c-78,0 -143,-12 -197,-37 -53,-25 -94,-59 -122,-103 -28,-44 -42,-93 -42,-149l167 0c0,23 6,46 19,68 13,22 34,40 62,54 28,14 66,20 113,20 42,0 77,-6 105,-18 28,-12 49,-28 63,-48 14,-20 20,-42 20,-67 0,-31 -13,-56 -40,-75 -26,-19 -67,-31 -123,-36l-77 -6c-84,-7 -151,-33 -202,-79 -50,-45 -75,-105 -75,-180 0,-56 13,-104 40,-145 26,-41 64,-72 111,-94 48,-22 104,-33 168,-33 67,0 124,12 172,35 48,23 85,56 112,98 26,42 40,92 40,149l-167 0c0,-24 -6,-46 -17,-67 -12,-20 -29,-37 -52,-49 -23,-12 -52,-19 -87,-19 -34,0 -62,6 -84,17 -22,11 -39,26 -51,46 -11,19 -17,40 -17,63 0,27 10,51 30,72 20,20 52,32 95,35l77 7c63,5 118,18 165,40 47,22 84,51 110,88 26,37 39,81 39,134 0,55 -14,104 -43,146 -29,42 -70,75 -123,98 -53,23 -116,35 -188,35z"/>
 </g>
</svg>
